# xmcd
#
# Track frame offsets:
#	150
#	19122
#	39842
#	58662
#
# Disc length: 1032 seconds
#
# Revision: 6
# Processed by: cddbd v1.5.2PL0 Copyright (c) Steve Scherf et al.
# Submitted via: audiograbber 1.83.01
#
DISCID=27040604
DTITLE=Naughty by Nature - Clap yo hands the chain remains
DYEAR=1995
DGENRE=Rap
TTITLE0=Clap yo hands (Video edit)
TTITLE1=Clap yo hands (Album Version)
TTITLE2=Clap yo hands (Kay Gee funky mix)
TTITLE3=Clap yo hands (Kay Gee funky instrumental)
EXTD=
EXTT0=
EXTT1=
EXTT2=
EXTT3=
PLAYORDER=
